<?xml version="1.0" encoding="UTF-8" standalone="no"?>
<!-- Created with Inkscape (http://www.inkscape.org/) -->

<svg
   version="1.1"
   id="svg1"
   width="1333.3333"
   height="1333.3333"
   viewBox="0 0 1333.3333 1333.3333"
   sodipodi:docname="світлий.eps"
   xmlns:inkscape="http://www.inkscape.org/namespaces/inkscape"
   xmlns:sodipodi="http://sodipodi.sourceforge.net/DTD/sodipodi-0.dtd"
   xmlns="http://www.w3.org/2000/svg"
   xmlns:svg="http://www.w3.org/2000/svg">
  <defs
     id="defs1" />
  <sodipodi:namedview
     id="namedview1"
     pagecolor="#ffffff"
     bordercolor="#000000"
     borderopacity="0.25"
     inkscape:showpageshadow="2"
     inkscape:pageopacity="0.0"
     inkscape:pagecheckerboard="0"
     inkscape:deskcolor="#d1d1d1">
    <inkscape:page
       x="0"
       y="0"
       inkscape:label="1"
       id="page1"
       width="1333.3333"
       height="1333.3333"
       margin="0"
       bleed="0" />
  </sodipodi:namedview>
  <g
     id="g1"
     inkscape:groupmode="layer"
     inkscape:label="1">
    <g
       id="group-R5">
      <path
         id="path2"
         d="M 0,0 H 10000 V 10000 H 0 Z"
         style="fill:#e8e0dd;fill-opacity:1;fill-rule:nonzero;stroke:none"
         transform="matrix(0.13333333,0,0,-0.13333333,0,1333.3333)" />
      <path
         id="path3"
         d="m 2327.72,5071.05 c 195.17,0 324.64,129.47 324.64,324.64 0,220.29 -141.07,361.36 -351.69,361.36 H 2016.6 v -686 z m -253.14,-645.41 h -231.89 l 13.53,21.26 c 27.05,44.45 44.45,110.15 44.45,162.32 v 983.58 c 0,52.17 -17.4,117.87 -44.45,162.31 l -13.53,21.26 h 550.73 c 224.16,0 374.88,-150.72 374.88,-374.88 0,-212.56 -137.2,-349.76 -343.96,-349.76 H 2016.6 v -442.51 c 0,-52.17 17.4,-117.87 44.45,-162.32 l 13.53,-21.26"
         style="fill:#34292d;fill-opacity:1;fill-rule:nonzero;stroke:none"
         transform="matrix(0.13333333,0,0,-0.13333333,0,1333.3333)" />
      <path
         id="path4"
         d="m 3456.22,4425.64 c 289.85,0 521.74,270.53 521.74,674.4 0,405.8 -231.89,676.33 -521.74,676.33 -287.93,0 -519.81,-270.53 -519.81,-676.33 0,-403.87 231.88,-674.4 519.81,-674.4 z m 0,1370.06 c 359.42,0 637.68,-278.27 637.68,-695.66 0,-415.46 -278.26,-693.72 -637.68,-693.72 -357.49,0 -635.75,278.26 -635.75,693.72 0,417.39 278.26,695.66 635.75,695.66"
         style="fill:#34292d;fill-opacity:1;fill-rule:nonzero;stroke:none"
         transform="matrix(0.13333333,0,0,-0.13333333,0,1333.3333)" />
      <path
         id="path5"
         d="m 4405.01,5755.12 c -27.06,-44.45 -44.45,-110.15 -44.45,-162.32 V 4444.97 h 363.29 c 106.28,0 216.43,57.97 276.33,143 l 34.78,50.23 -38.65,-212.56 h -809.66 l 13.52,21.26 c 27.06,44.45 44.45,110.15 44.45,162.32 v 983.58 c 0,52.17 -17.39,117.87 -44.45,162.32 l -13.52,21.25 h 231.88 l -13.52,-21.25"
         style="fill:#34292d;fill-opacity:1;fill-rule:nonzero;stroke:none"
         transform="matrix(0.13333333,0,0,-0.13333333,0,1333.3333)" />
      <path
         id="path6"
         d="m 5641.71,4425.64 c 289.86,0 521.75,270.53 521.75,674.4 0,405.8 -231.89,676.33 -521.75,676.33 -287.92,0 -519.8,-270.53 -519.8,-676.33 0,-403.87 231.88,-674.4 519.8,-674.4 m 0,1370.06 c 359.42,0 637.69,-278.26 637.69,-695.66 0,-415.46 -278.27,-693.72 -637.69,-693.72 -357.48,0 -635.74,278.26 -635.74,693.72 0,417.4 278.26,695.66 635.74,695.66"
         style="fill:#34292d;fill-opacity:1;fill-rule:nonzero;stroke:none"
         transform="matrix(0.13333333,0,0,-0.13333333,0,1333.3333)" />
      <path
         id="path7"
         d="m 7034.97,5757.05 h -428.98 c -106.29,0 -216.43,-57.98 -276.34,-143 l -34.77,-50.24 38.64,212.56 h 848.31 l -778.74,-1331.4 h 467.63 c 106.28,0 216.42,57.97 276.32,143 l 34.79,50.23 -38.64,-212.56 h -886.97 l 778.75,1331.41"
         style="fill:#34292d;fill-opacity:1;fill-rule:nonzero;stroke:none"
         transform="matrix(0.13333333,0,0,-0.13333333,0,1333.3333)" />
      <path
         id="path8"
         d="m 4589.26,3539.99 c -8.05,0 -16.09,1.34 -25.48,5.37 -17.44,5.36 -28.17,16.09 -33.54,33.53 -6.71,18.78 -6.71,37.56 -6.71,56.34 v 17.43 c 0,81.83 9.39,163.66 18.79,246.82 20.96,175.13 46.46,349.12 50.44,526.16 h 97.11 v -3 c -2.69,-186.46 -32.2,-367.56 -64.39,-549.99 -12.07,-72.43 -24.14,-143.52 -36.22,-214.61 -2.68,-17.45 -5.36,-34.89 -5.36,-53.67 0,-9.38 1.34,-20.11 2.68,-30.85 32.19,16.1 50.97,38.9 71.09,60.37 45.61,50.97 87.2,104.62 124.75,160.96 77.81,111.34 152.92,225.36 230.73,336.7 90.6,128.66 185.09,253.87 284.45,375.13 13.54,-8.9 27.47,-17.27 41.72,-25.05 -146.62,-184.53 -284.28,-375.49 -420.07,-567.39 -59.02,-84.51 -118.05,-167.68 -182.43,-248.16 -30.85,-38.9 -63.05,-77.8 -103.29,-108.65 -14.76,-10.73 -28.17,-17.44 -44.27,-17.44 m 100.61,904.98 h -96.77 c 0.12,9.08 0.19,18.19 0.19,27.29 0,80.48 -4.03,162.31 -20.12,241.46 -5.37,33.53 -9.39,67.07 -38.91,89.87 -5.36,4.03 -10.73,12.07 -10.73,20.12 0,1.34 0,4.02 1.34,5.36 4.03,10.73 17.45,10.73 28.18,10.73 h 2.68 c 14.76,0 26.83,-9.38 37.56,-18.78 32.19,-29.51 54.99,-65.72 67.07,-108.65 21.46,-81.82 29.51,-166.33 29.51,-250.84 v -16.56"
         style="fill:#927b7d;fill-opacity:1;fill-rule:nonzero;stroke:none"
         transform="matrix(0.13333333,0,0,-0.13333333,0,1333.3333)" />
      <path
         id="path9"
         d="m 4689.87,4425.64 h -97.11 c 0.14,6.44 0.26,12.88 0.34,19.33 h 96.77 v -19.33"
         style="fill:#776162;fill-opacity:1;fill-rule:nonzero;stroke:none"
         transform="matrix(0.13333333,0,0,-0.13333333,0,1333.3333)" />
      <path
         id="path10"
         d="m 5368.66,4518.32 c -12.5,9.44 -24.62,19.53 -36.38,30.29 64.94,77.76 131.96,153.86 201.33,228.15 28.17,30.86 57.68,60.37 91.22,87.19 14.75,10.74 30.85,22.81 49.63,26.83 1.33,0 4.02,1.34 5.36,1.34 4.03,0 8.05,-1.34 10.73,-5.36 1.35,-1.34 1.35,-4.03 1.35,-5.37 0,-4.03 -2.69,-8.05 -6.71,-10.73 -2.69,-2.68 -4.02,-5.37 -6.71,-8.06 -95.24,-81.81 -173.04,-178.39 -252.18,-273.64 -19.37,-23.42 -38.59,-46.98 -57.64,-70.64"
         style="fill:#927b7d;fill-opacity:1;fill-rule:nonzero;stroke:none"
         transform="matrix(0.13333333,0,0,-0.13333333,0,1333.3333)" />
      <path
         id="path11"
         d="m 5339.32,4481.63 c -14.25,7.78 -28.18,16.15 -41.72,25.05 11.49,14.04 23.05,28.01 34.68,41.93 11.76,-10.76 23.88,-20.85 36.38,-30.29 -9.82,-12.21 -19.6,-24.43 -29.34,-36.69"
         style="fill:#776162;fill-opacity:1;fill-rule:nonzero;stroke:none"
         transform="matrix(0.13333333,0,0,-0.13333333,0,1333.3333)" />
      <path
         id="path12"
         d="m 5638.22,3994.73 c -42.92,0 -73.78,30.84 -76.45,79.13 v 4.03 c 0,8.05 2.67,16.1 2.67,22.8 0,4.02 -1.33,8.05 -2.67,12.08 h -2.69 c -13.41,0 -18.78,-9.39 -28.17,-14.75 -33.53,-21.47 -65.72,-44.27 -99.26,-65.74 -13.42,-9.39 -28.17,-16.09 -44.27,-24.14 -9.39,-4.03 -18.77,-9.39 -28.17,-9.39 -6.7,0 -13.41,2.68 -21.45,9.39 -10.73,9.39 -14.76,20.12 -14.76,29.5 0,9.4 2.68,17.44 6.7,26.84 5.37,16.09 14.76,32.19 25.49,46.94 49.64,68.42 112.67,122.07 187.8,160.97 14.76,6.71 28.16,12.08 44.26,13.42 h 8.05 c 44.26,0 53.66,-20.12 69.75,-55 1.35,-2.69 1.35,-4.03 1.35,-6.71 0,-4.02 -2.69,-8.05 -6.71,-12.07 -2.68,-1.34 -4.02,-2.69 -6.71,-2.69 -2.68,0 -6.71,2.69 -9.39,5.37 -6.7,6.71 -12.07,8.05 -18.78,8.05 -8.05,0 -16.1,-2.68 -24.14,-5.36 -18.78,-8.06 -36.23,-18.78 -52.32,-29.51 -57.67,-36.22 -109.99,-80.49 -159.63,-127.43 -9.38,-8.06 -21.46,-14.76 -22.8,-32.2 h 4.02 c 16.11,0 29.52,8.05 41.58,17.44 65.74,37.56 124.76,84.5 178.41,138.16 4.03,4.03 6.71,9.39 10.74,13.41 5.36,5.37 12.07,9.4 18.78,9.4 5.36,0 9.39,-1.35 13.41,-6.71 5.36,-6.71 13.41,-13.42 13.41,-24.15 0,-2.68 -1.34,-6.7 -4.02,-12.07 -13.41,-18.78 -25.49,-37.56 -36.22,-57.68 -8.05,-16.1 -14.76,-32.2 -14.76,-49.64 v -5.36 c 0,-25.49 12.08,-40.24 34.89,-40.24 4.02,0 8.04,0 13.4,1.35 12.08,2.67 22.81,6.7 33.54,12.07 40.24,17.44 77.8,40.24 115.36,65.72 0.64,0.43 1.27,0.88 1.9,1.35 -3.19,-9.91 -6.25,-19.88 -9.16,-29.9 -29.6,-22.2 -60.55,-41.47 -94.69,-55.95 l -28.17,-8.05 c -6.7,-1.35 -13.41,-2.68 -20.12,-2.68"
         style="fill:#927b7d;fill-opacity:1;fill-rule:nonzero;stroke:none"
         transform="matrix(0.13333333,0,0,-0.13333333,0,1333.3333)" />
      <path
         id="path13"
         d="m 5842.12,3808.27 c -45.61,0 -77.8,30.85 -81.83,84.51 -1.34,10.72 -1.34,21.46 -1.34,32.19 0,40.24 6.71,80.49 17.44,119.38 1.55,5.7 3.16,11.4 4.81,17.06 2.91,10.02 5.97,19.99 9.16,29.9 18.38,57.1 41.2,112.54 66.52,166.32 39.06,83.3 81.37,164.58 124.69,245.38 77.47,49.53 143.27,116.8 193.16,198.76 9.65,-9.55 14.81,-15.14 14.81,-21.59 0,-8.05 -6.71,-16.1 -18.78,-32.19 -134.14,-187.8 -244.14,-389.01 -334.01,-600.95 -14.76,-34.87 -26.83,-69.76 -33.53,-105.97 -2.68,-14.75 -4.03,-29.51 -4.03,-44.27 0,-8.04 0,-16.1 1.35,-24.15 4.02,-29.51 18.78,-42.92 41.58,-42.92 5.36,0 12.07,1.34 18.78,2.68 25.49,6.71 49.63,17.44 73.77,28.17 97.93,50.98 185.12,118.05 258.9,199.88 8.16,8.97 16.32,17.95 26.9,27.53 0.36,-8.21 1.69,-16.18 3.91,-23.79 -1.34,-1.72 -2.68,-3.41 -3.99,-5.09 -80.49,-96.58 -177.06,-173.04 -291.08,-226.7 -18.78,-8.05 -37.56,-14.75 -57.68,-20.12 -10.73,-2.68 -20.12,-4.02 -29.51,-4.02"
         style="fill:#927b7d;fill-opacity:1;fill-rule:nonzero;stroke:none"
         transform="matrix(0.13333333,0,0,-0.13333333,0,1333.3333)" />
      <path
         id="path14"
         d="m 5981.57,4503.01 c 35.52,66.24 71.71,132.16 107.37,198.63 9.38,18.78 21.46,32.2 44.27,32.2 h 5.36 c 9.39,-1.34 20.11,0 21.46,-13.42 0,-5.36 4.03,-8.05 6.71,-10.73 2.93,-2.94 5.6,-5.55 7.99,-7.92 -49.89,-81.96 -115.69,-149.23 -193.16,-198.76"
         style="fill:#776162;fill-opacity:1;fill-rule:nonzero;stroke:none"
         transform="matrix(0.13333333,0,0,-0.13333333,0,1333.3333)" />
      <path
         id="path15"
         d="m 6350.48,3986.68 c -18.78,0 -36.21,2.67 -53.65,8.05 -36.8,10.51 -62.89,36.68 -72.45,69.47 -2.22,7.61 -3.55,15.58 -3.91,23.79 -0.07,1.54 -0.11,3.09 -0.11,4.66 0,8.04 0,16.09 2.69,25.48 5.37,28.18 18.78,52.32 36.22,72.43 44.27,50.98 99.26,85.85 163.65,104.63 12.07,2.69 22.8,4.03 34.88,4.03 h 12.07 c 34.88,-1.34 63.04,-25.48 69.75,-59.02 0,-2.68 1.34,-4.02 1.34,-6.71 0,-10.73 -5.36,-18.78 -12.07,-26.82 -28.18,-33.54 -59.02,-64.4 -93.9,-91.22 -10.73,-8.05 -20.12,-12.07 -29.51,-12.07 -9.39,0 -18.78,4.02 -29.51,12.07 -9.38,6.71 -16.09,13.41 -24.14,22.8 -9.4,12.08 -14.76,17.44 -20.13,17.44 -5.36,0 -10.73,-6.71 -24.14,-17.44 -12.08,-10.73 -24.15,-22.8 -33.53,-36.21 -10.74,-16.1 -16.11,-29.51 -16.11,-42.93 0,-21.47 17.44,-37.56 49.64,-45.61 16.09,-4.02 32.19,-6.71 48.29,-6.71 9.39,0 20.12,1.35 29.51,2.69 89.88,16.09 174.38,45.6 257.55,83.17 4.05,2.02 8.1,4.38 12.48,6.23 -3.45,-7.13 -6.89,-14.25 -10.32,-21.36 -85.47,-43.93 -176.03,-73.77 -270.44,-89.5 -8.04,-1.34 -16.1,-1.34 -24.15,-1.34 m 136.83,252.18 c -49.63,-10.74 -87.19,-32.19 -123.41,-57.68 -4.02,-2.69 -5.37,-5.37 -5.37,-10.73 v -4.03 c 8.06,-21.46 24.15,-33.53 42.93,-33.53 9.38,0 20.11,4.02 29.51,10.73 29.51,21.47 46.94,52.32 56.34,95.24"
         style="fill:#927b7d;fill-opacity:1;fill-rule:nonzero;stroke:none"
         transform="matrix(0.13333333,0,0,-0.13333333,0,1333.3333)" />
      <path
         id="path16"
         d="m 6653.63,3986.68 c -1.33,0 -4.02,0 -6.7,1.34 -10.73,6.71 -22.81,13.41 -22.81,26.82 v 2.69 c 1.35,14.75 5.37,28.17 12.08,41.58 2.95,6.13 5.91,12.27 8.87,18.41 3.43,7.11 6.87,14.23 10.32,21.36 27.56,56.92 55.83,114.54 84.1,172.17 6.7,12.07 16.1,18.78 25.48,18.78 8.05,0 17.44,-5.36 26.83,-14.75 2.69,-4.03 6.71,-8.05 10.73,-9.39 8.05,-6.71 12.07,-13.42 12.07,-20.12 0,-6.71 -2.67,-12.08 -8.05,-20.12 -1.33,-1.35 -4.02,-4.03 -4.02,-6.71 0,-1.34 1.35,-4.03 2.69,-5.36 12.07,2.67 17.44,13.4 25.48,21.45 24.15,24.15 49.63,48.29 79.15,65.74 10.73,6.7 21.46,12.06 32.19,16.09 5.37,2.68 10.72,4.02 14.76,4.02 6.7,0 12.07,-2.67 18.78,-8.05 8.04,-6.71 10.72,-14.75 10.72,-24.14 0,-2.68 0,-6.71 -1.34,-10.73 -8.04,-21.46 -17.44,-42.93 -24.14,-64.38 -2.68,-8.06 -4.02,-14.76 -4.02,-20.13 0,-16.09 10.72,-22.8 34.87,-22.8 h 12.07 c 12.07,0 25.49,1.34 37.56,5.36 6.71,1.35 13.42,4.03 21.47,4.03 5.36,0 12.07,-1.35 20.11,-4.03 -29.51,-16.1 -54.99,-24.14 -81.82,-24.14 -6.7,0 -13.41,0 -20.12,1.33 -28.18,4.03 -44.27,20.13 -44.27,42.94 0,6.7 1.35,13.4 4.03,21.46 5.37,21.46 13.41,42.92 20.12,67.07 -20.12,-4.03 -30.86,-14.75 -42.93,-24.15 -88.53,-69.76 -169.01,-147.55 -232.06,-241.45 l -16.09,-20.12 c -4.02,-5.36 -8.05,-12.07 -16.11,-12.07"
         style="fill:#927b7d;fill-opacity:1;fill-rule:nonzero;stroke:none"
         transform="matrix(0.13333333,0,0,-0.13333333,0,1333.3333)" />
      <path
         id="path17"
         d="m 7237.15,3994.73 c -16.1,0 -32.2,4.02 -48.29,10.73 -32.2,14.75 -49.64,40.24 -50.98,75.11 0,42.92 9.4,83.17 29.51,120.73 10.74,22.8 25.49,42.93 36.23,65.73 8.04,14.75 21.45,21.46 37.55,24.14 h 6.7 c 13.42,0 20.13,-6.7 25.49,-20.12 1.35,-4.02 4.03,-5.36 6.71,-8.04 9.39,-10.74 14.76,-16.11 14.76,-21.47 0,-5.36 -5.37,-10.73 -14.76,-22.8 -28.16,-30.85 -52.31,-64.39 -72.43,-100.61 -8.05,-14.75 -14.76,-30.85 -18.78,-46.95 -1.35,-4.02 -1.35,-9.39 -1.35,-13.41 0,-25.49 16.11,-41.58 42.93,-41.58 h 8.05 c 17.44,1.34 34.87,6.7 52.31,13.41 40.25,16.1 80.49,36.22 116.7,60.36 0.97,0.81 1.94,1.63 2.91,2.46 -0.16,-3.93 -0.24,-7.87 -0.24,-11.85 0.12,-3.07 0.36,-6.07 0.73,-8.99 -45.47,-35.22 -95.36,-60.23 -152.3,-74.17 -8.04,-1.35 -14.75,-2.68 -21.45,-2.68 m 60.36,312.54 c -2.68,0 -5.37,1.34 -8.05,2.68 -10.73,8.06 -18.77,17.44 -18.77,24.15 v 1.34 c 4.02,41.58 17.43,69.75 37.55,95.24 5.37,6.71 13.41,10.73 20.12,10.73 10.73,0 20.12,-6.71 28.18,-16.1 4.02,-5.36 6.69,-12.07 12.07,-17.43 5.36,-5.37 6.71,-9.39 6.71,-12.08 0,-6.7 -5.38,-10.72 -12.09,-16.1 -22.8,-17.44 -49.62,-32.19 -57.67,-64.38 -1.34,-6.71 -5.37,-8.05 -8.05,-8.05"
         style="fill:#927b7d;fill-opacity:1;fill-rule:nonzero;stroke:none"
         transform="matrix(0.13333333,0,0,-0.13333333,0,1333.3333)" />
      <path
         id="path18"
         d="m 7509.43,3994.73 c -16.1,0 -32.19,4.02 -48.29,10.73 -29.36,13.45 -46.45,35.83 -50.24,66.12 -0.37,2.92 -0.61,5.92 -0.73,8.99 0,3.98 0.08,7.92 0.24,11.85 1.59,38.5 11.01,74.79 29.27,108.88 10.73,22.8 25.49,42.93 36.22,65.73 8.05,14.75 21.46,21.46 37.56,24.14 h 6.7 c 13.42,0 20.12,-6.7 25.49,-20.12 1.34,-4.02 4.02,-5.36 6.71,-8.04 9.39,-10.74 14.75,-16.11 14.75,-21.47 0,-5.36 -5.36,-10.73 -14.75,-22.8 -28.17,-30.85 -52.32,-64.39 -72.44,-100.61 -8.04,-14.75 -14.75,-30.85 -18.78,-46.95 -1.34,-4.02 -1.34,-9.39 -1.34,-13.41 0,-25.49 16.1,-41.58 42.93,-41.58 h 8.04 c 17.45,1.34 34.88,6.7 52.32,13.41 40.24,16.1 80.49,36.22 116.7,60.36 0.53,0.44 1.05,0.89 1.58,1.33 -5.06,-8.78 -9.33,-17.79 -12.33,-26.81 -0.71,-1.65 -1.37,-3.26 -1.99,-4.83 -41.09,-28.99 -85.88,-49.93 -136.16,-62.24 -8.05,-1.35 -14.76,-2.68 -21.46,-2.68 m 60.37,312.54 c -2.69,0 -5.37,1.34 -8.05,2.68 -10.73,8.06 -18.78,17.44 -18.78,24.15 v 1.34 c 4.02,41.58 17.43,69.75 37.56,95.24 5.36,6.71 13.41,10.73 20.12,10.73 10.73,0 20.11,-6.71 28.17,-16.1 4.02,-5.36 6.7,-12.07 12.07,-17.43 5.36,-5.37 6.71,-9.39 6.71,-12.08 0,-6.7 -5.37,-10.72 -12.08,-16.1 -22.8,-17.44 -49.63,-32.19 -57.68,-64.38 -1.33,-6.71 -5.37,-8.05 -8.04,-8.05"
         style="fill:#927b7d;fill-opacity:1;fill-rule:nonzero;stroke:none"
         transform="matrix(0.13333333,0,0,-0.13333333,0,1333.3333)" />
      <path
         id="path19"
         d="m 7977.56,3994.73 c -42.92,0 -73.78,30.84 -76.45,79.13 v 4.03 c 0,8.05 2.67,16.1 2.67,22.8 0,4.02 -1.34,8.05 -2.67,12.08 h -2.69 c -13.42,0 -18.78,-9.39 -28.17,-14.75 -33.54,-21.47 -65.73,-44.27 -99.26,-65.74 -13.42,-9.39 -28.18,-16.09 -44.27,-24.14 -9.39,-4.03 -18.78,-9.39 -28.17,-9.39 -6.7,0 -13.41,2.68 -21.46,9.39 -10.73,9.39 -14.75,20.12 -14.75,29.5 0,7.75 1.82,14.58 4.71,22.01 0.62,1.57 1.28,3.18 1.99,4.83 3,9.02 7.27,18.03 12.33,26.81 3.97,6.9 8.43,13.64 13.15,20.13 49.64,68.42 112.68,122.07 187.81,160.97 14.75,6.71 28.16,12.08 44.25,13.42 h 8.06 c 44.26,0 53.65,-20.12 69.75,-55 1.35,-2.69 1.35,-4.03 1.35,-6.71 0,-4.02 -2.69,-8.05 -6.71,-12.07 -2.69,-1.34 -4.03,-2.69 -6.71,-2.69 -2.69,0 -6.71,2.69 -9.4,5.37 -6.7,6.71 -12.07,8.05 -18.78,8.05 -8.04,0 -16.09,-2.68 -24.14,-5.36 -18.78,-8.06 -36.22,-18.78 -52.31,-29.51 -57.68,-36.22 -109.99,-80.49 -159.63,-127.43 -9.39,-8.06 -21.47,-14.76 -22.8,-32.2 h 4.02 c 16.1,0 29.51,8.05 41.58,17.44 65.73,37.56 124.76,84.5 178.41,138.16 4.02,4.03 6.71,9.39 10.73,13.41 5.36,5.37 12.07,9.4 18.78,9.4 5.36,0 9.4,-1.35 13.42,-6.71 5.36,-6.71 13.41,-13.42 13.41,-24.15 0,-2.68 -1.34,-6.7 -4.02,-12.07 -13.41,-18.78 -25.49,-37.56 -36.23,-57.68 -8.04,-16.1 -14.75,-32.2 -14.75,-49.64 v -5.36 c 0,-25.49 12.08,-40.24 34.88,-40.24 4.02,0 8.05,0 13.41,1.35 12.08,2.67 22.81,6.7 33.53,12.07 40.25,17.44 77.81,40.24 115.37,65.72 8.04,5.37 14.75,14.75 28.17,14.75 1.34,-2.67 1.34,-5.36 1.34,-6.69 0,-8.06 -6.71,-13.42 -10.74,-16.11 -37.55,-30.85 -76.45,-57.67 -120.72,-76.45 l -28.17,-8.05 c -6.7,-1.35 -13.41,-2.68 -20.12,-2.68"
         style="fill:#927b7d;fill-opacity:1;fill-rule:nonzero;stroke:none"
         transform="matrix(0.13333333,0,0,-0.13333333,0,1333.3333)" />
      <path
         id="path20"
         d="m 4029.49,6280.21 c 0,58.86 -25.4,97.56 -64.1,97.56 -37.49,0 -64.1,-37.89 -64.1,-95.94 v -4.84 c 0,-59.66 25.8,-95.95 62.89,-95.95 38.7,0 65.31,39.1 65.31,99.17 z m -128.2,-40.71 v -103.61 c 0,-10.88 3.63,-24.59 9.27,-33.86 l 2.83,-4.43 h -48.38 l 2.82,4.43 c 5.64,9.27 9.27,22.98 9.27,33.86 v 205.2 c 0,10.88 -3.63,24.59 -9.27,33.86 l -2.82,4.44 h 36.28 v -60.48 c 9.67,39.92 35.07,64.51 71.35,64.51 47.58,0 81.03,-41.53 81.03,-104.01 0,-61.28 -32.24,-105.22 -81.03,-105.22 -36.28,0 -61.68,24.59 -71.35,65.31"
         style="fill:#34292d;fill-opacity:1;fill-rule:nonzero;stroke:none"
         transform="matrix(0.13333333,0,0,-0.13333333,0,1333.3333)" />
      <path
         id="path21"
         d="m 4241.13,6216.52 c 0,-10.89 3.63,-24.59 9.27,-33.87 l 2.82,-4.43 h -48.37 l 2.82,4.43 c 5.64,9.28 9.27,22.98 9.27,33.87 v 91.51 c 0,41.12 -14.92,67.32 -47.17,67.32 -34.67,0 -61.28,-29.02 -61.28,-68.53 v -90.3 c 0,-10.89 3.63,-24.59 9.28,-33.87 l 2.82,-4.43 h -48.38 l 2.83,4.43 c 5.64,9.28 9.27,22.98 9.27,33.87 v 205.2 c 0,10.88 -3.63,24.59 -9.27,33.86 l -2.83,4.43 h 36.28 v -126.99 c 10.09,30.64 37.5,50.4 71.77,50.4 37.89,0 60.87,-23.79 60.87,-66.52 v -100.38"
         style="fill:#34292d;fill-opacity:1;fill-rule:nonzero;stroke:none"
         transform="matrix(0.13333333,0,0,-0.13333333,0,1333.3333)" />
      <path
         id="path22"
         d="m 4373.75,6178.22 c 48.38,0 80.63,40.31 80.63,100.38 0,60.47 -32.25,100.79 -80.63,100.79 -47.97,0 -80.22,-40.32 -80.22,-100.79 0,-60.07 32.25,-100.38 80.22,-100.38 z m 0,205.2 c 62.89,0 104.82,-41.93 104.82,-104.82 0,-62.48 -41.93,-104.41 -104.82,-104.41 -62.48,0 -104.41,41.93 -104.41,104.41 0,62.89 41.93,104.82 104.41,104.82"
         style="fill:#34292d;fill-opacity:1;fill-rule:nonzero;stroke:none"
         transform="matrix(0.13333333,0,0,-0.13333333,0,1333.3333)" />
      <path
         id="path23"
         d="m 4489.85,6379.39 h 20.16 v 30.23 l 24.19,16.12 v -46.35 h 38.7 v -4.04 h -38.7 v -125.77 c 0,-52.01 13.7,-70.15 32.65,-70.15 v -1.21 c -37.89,0 -56.84,14.92 -56.84,67.32 v 129.81 h -20.16 v 4.04"
         style="fill:#34292d;fill-opacity:1;fill-rule:nonzero;stroke:none"
         transform="matrix(0.13333333,0,0,-0.13333333,0,1333.3333)" />
      <path
         id="path24"
         d="m 4672.07,6178.22 c 48.38,0 80.63,40.31 80.63,100.38 0,60.47 -32.25,100.79 -80.63,100.79 -47.97,0 -80.22,-40.32 -80.22,-100.79 0,-60.07 32.25,-100.38 80.22,-100.38 z m 0,205.2 c 62.89,0 104.82,-41.93 104.82,-104.82 0,-62.48 -41.93,-104.41 -104.82,-104.41 -62.49,0 -104.41,41.93 -104.41,104.41 0,62.89 41.92,104.82 104.41,104.82"
         style="fill:#34292d;fill-opacity:1;fill-rule:nonzero;stroke:none"
         transform="matrix(0.13333333,0,0,-0.13333333,0,1333.3333)" />
      <path
         id="path25"
         d="m 4896.61,6097.6 c 40.32,0 71.35,31.44 71.35,65.7 0,53.22 -74.57,16.13 -124.97,5.65 -0.4,-29.03 6.86,-71.35 53.62,-71.35 z m -7.26,133.03 c 39.92,0 66.92,29.83 66.92,72.56 0,42.74 -26.61,75.79 -66.92,76.2 h -1.6 c -39.93,0 -68.14,-31.05 -68.14,-74.99 0,-43.54 29.03,-73.77 69.74,-73.77 z m -2.41,152.79 c 1.61,0 2.41,0 3.22,0 26.61,0 48.38,-2.02 61.68,38.3 l 18.14,-13.71 c -10.48,-23.79 -28.22,-29.03 -48.78,-29.43 36.28,-10.89 59.26,-39.1 59.26,-74.98 0,-46.37 -39.1,-77 -92.71,-77 -44.36,0 -68.95,-9.68 -68.95,-25.4 0,-41.12 169.32,73.37 169.32,-20.96 0,-47.17 -42.33,-86.68 -98.36,-86.68 -47.17,0 -64.9,27.41 -73.38,60.88 l 20.98,13.3 c -22.58,-4.03 -38.71,-1.21 -38.71,20.16 0,24.18 21.77,37.49 62.08,41.52 -39.51,8.87 -65.31,36.69 -65.31,74.58 0,45.55 36.68,79.02 91.52,79.42"
         style="fill:#34292d;fill-opacity:1;fill-rule:nonzero;stroke:none"
         transform="matrix(0.13333333,0,0,-0.13333333,0,1333.3333)" />
      <path
         id="path26"
         d="m 5052.62,6178.22 h -48.38 l 2.82,4.43 c 5.65,9.28 9.28,22.98 9.28,33.87 v 124.57 c 0,10.88 -3.63,24.59 -9.28,33.86 l -2.82,4.44 h 36.28 v -43.54 c 8.88,29.02 30.64,47.57 57.25,47.57 21.77,0 39.11,-12.5 49.19,-42.73 l -22.58,-16.94 c -6.86,34.27 -17.74,51.6 -37.49,51.6 -25.8,0 -46.37,-28.21 -46.37,-68.53 v -90.3 c 0,-10.89 3.63,-24.59 9.28,-33.87 l 2.82,-4.43"
         style="fill:#34292d;fill-opacity:1;fill-rule:nonzero;stroke:none"
         transform="matrix(0.13333333,0,0,-0.13333333,0,1333.3333)" />
      <path
         id="path27"
         d="m 5166.71,6232.64 c 0,-31.04 23.79,-51.6 51.6,-51.6 33.87,0 68.54,31.85 68.54,76.19 v 50.8 1.21 c -69.34,-1.21 -120.14,-31.44 -120.14,-76.6 z m 144.33,-16.12 c 0,-10.89 3.62,-24.59 9.27,-33.87 l 2.82,-4.43 h -36.28 v 51.2 c -10.48,-34.27 -40.31,-55.23 -75.39,-55.23 -38.29,0 -68.94,24.19 -68.94,58.85 0,48.79 61.28,79.42 144.33,80.23 -1.21,43.14 -15.32,66.12 -44.35,66.12 -27.41,0 -50.39,-20.97 -64.1,-62.89 l -18.13,13.7 c 16.12,36.69 49.98,53.22 83.04,53.22 46.36,0 67.73,-31.85 67.73,-83.45 v -83.45"
         style="fill:#34292d;fill-opacity:1;fill-rule:nonzero;stroke:none"
         transform="matrix(0.13333333,0,0,-0.13333333,0,1333.3333)" />
      <path
         id="path28"
         d="m 5502.91,6280.21 c 0,58.86 -25.39,97.56 -64.09,97.56 -37.5,0 -64.1,-37.89 -64.1,-95.94 v -4.84 c 0,-59.66 25.8,-95.95 62.89,-95.95 38.7,0 65.3,39.1 65.3,99.17 z m -128.19,-40.71 v -103.61 c 0,-10.88 3.62,-24.59 9.27,-33.86 l 2.82,-4.43 h -48.37 l 2.82,4.43 c 5.65,9.27 9.27,22.98 9.27,33.86 v 205.2 c 0,10.88 -3.62,24.59 -9.27,33.86 l -2.82,4.44 h 36.28 v -60.48 c 9.68,39.92 35.07,64.51 71.36,64.51 47.57,0 81.02,-41.53 81.02,-104.01 0,-61.28 -32.24,-105.22 -81.02,-105.22 -36.29,0 -61.68,24.59 -71.36,65.31"
         style="fill:#34292d;fill-opacity:1;fill-rule:nonzero;stroke:none"
         transform="matrix(0.13333333,0,0,-0.13333333,0,1333.3333)" />
      <path
         id="path29"
         d="m 5714.55,6216.52 c 0,-10.89 3.63,-24.59 9.27,-33.87 l 2.82,-4.43 h -48.38 l 2.83,4.43 c 5.64,9.28 9.27,22.98 9.27,33.87 v 91.51 c 0,41.12 -14.92,67.32 -47.16,67.32 -34.67,0 -61.28,-29.02 -61.28,-68.53 v -90.3 c 0,-10.89 3.63,-24.59 9.27,-33.87 l 2.83,-4.43 h -48.38 l 2.82,4.43 c 5.64,9.28 9.27,22.98 9.27,33.87 v 205.2 c 0,10.88 -3.63,24.59 -9.27,33.86 l -2.82,4.43 h 36.28 v -126.99 c 10.07,30.64 37.49,50.4 71.75,50.4 37.9,0 60.88,-23.79 60.88,-66.52 v -100.38"
         style="fill:#34292d;fill-opacity:1;fill-rule:nonzero;stroke:none"
         transform="matrix(0.13333333,0,0,-0.13333333,0,1333.3333)" />
      <path
         id="path30"
         d="m 5897.98,6290.29 c 0,49.59 -18.13,89.1 -60.47,89.1 -41.12,0 -69.74,-36.29 -70.54,-89.1 z m -60.87,93.13 c 51.19,0 85.06,-37.49 85.06,-93.13 v -4.03 h -155.2 c 0.8,-59.26 36.68,-98.77 85.05,-98.77 35.08,0 60.07,20.16 79.83,49.19 l 0.4,-0.41 c -21.77,-39.1 -45.56,-62.08 -88.69,-62.08 -57.25,0 -100.78,41.52 -100.78,105.62 0,61.28 39.1,103.61 94.33,103.61"
         style="fill:#34292d;fill-opacity:1;fill-rule:nonzero;stroke:none"
         transform="matrix(0.13333333,0,0,-0.13333333,0,1333.3333)" />
      <path
         id="path31"
         d="m 5994.73,6178.22 h -48.38 l 2.82,4.43 c 5.65,9.28 9.28,22.98 9.28,33.87 v 124.57 c 0,10.88 -3.63,24.59 -9.28,33.86 l -2.82,4.44 h 36.28 v -43.54 c 8.88,29.02 30.64,47.57 57.25,47.57 21.77,0 39.11,-12.5 49.18,-42.73 l -22.57,-16.94 c -6.86,34.27 -17.74,51.6 -37.49,51.6 -25.8,0 -46.37,-28.21 -46.37,-68.53 v -90.3 c 0,-10.89 3.63,-24.59 9.28,-33.87 l 2.82,-4.43"
         style="fill:#34292d;fill-opacity:1;fill-rule:nonzero;stroke:none"
         transform="matrix(0.13333333,0,0,-0.13333333,0,1333.3333)" />
    </g>
  </g>
</svg>
